<svg xmlns="http://www.w3.org/2000/svg" viewBox="0 0 360 72" fill="none" role="img" aria-label="Nimbus">
  <defs>
    <linearGradient id="bn-grad" x1="0" y1="0" x2="96" y2="96" gradientUnits="userSpaceOnUse">
      <stop stop-color="#2dd4bf"/>
      <stop offset="0.5" stop-color="#38bdf8"/>
      <stop offset="1" stop-color="#818cf8"/>
    </linearGradient>
    <linearGradient id="bn-text" x1="72" y1="8" x2="360" y2="64" gradientUnits="userSpaceOnUse">
      <stop stop-color="#0d9488"/>
      <stop offset="0.55" stop-color="#2563eb"/>
      <stop offset="1" stop-color="#4f46e5"/>
    </linearGradient>
  </defs>
  <g transform="translate(4,4) scale(0.5)">
    <path fill="url(#bn-grad)" d="M96 52c0-15.5-12.5-28-28-28-11.8 0-22 7.3-26.2 17.6C38.8 39.8 34 38 28.5 38 16.5 38 7 47.5 7 59.5 7 71 16 80.5 28 81h64c11 0 20-9 20-20 0-9.8-7.1-17.8-16-19.2V52z"/>
    <ellipse cx="56" cy="48" rx="22" ry="18" fill="white" opacity="0.2"/>
    <circle cx="54" cy="58" r="16" stroke="white" stroke-width="4" stroke-opacity="0.92"/>
    <path stroke="white" stroke-width="4" stroke-linecap="round" stroke-opacity="0.92" d="M66 70l14 14"/>
    <circle cx="88" cy="36" r="3" fill="#fef3c7"/>
    <circle cx="98" cy="48" r="2.2" fill="#fef3c7" opacity="0.75"/>
  </g>
  <text x="76" y="48" fill="url(#bn-text)" font-family="Segoe UI, system-ui, sans-serif" font-size="30" font-weight="700" letter-spacing="-0.05em">Nimbus</text>
  <text x="76" y="66" fill="#64748b" font-family="Segoe UI, system-ui, sans-serif" font-size="11.5" font-weight="500" letter-spacing="0.08em" opacity="0.9">SEMANTIC SEARCH · WEBDAV</text>
</svg>
