<svg xmlns="http://www.w3.org/2000/svg" viewBox="0 0 128 128" fill="none" role="img" aria-label="Nimbus">
  <defs>
    <linearGradient id="pc-grad" x1="16" y1="8" x2="112" y2="120" gradientUnits="userSpaceOnUse">
      <stop stop-color="#2dd4bf"/>
      <stop offset="0.45" stop-color="#38bdf8"/>
      <stop offset="1" stop-color="#818cf8"/>
    </linearGradient>
    <linearGradient id="pc-shine" x1="44" y1="28" x2="88" y2="72" gradientUnits="userSpaceOnUse">
      <stop stop-color="#ffffff" stop-opacity="0.35"/>
      <stop offset="1" stop-color="#ffffff" stop-opacity="0"/>
    </linearGradient>
    <filter id="pc-soft" x="-10%" y="-10%" width="120%" height="120%">
      <feGaussianBlur stdDeviation="0.8" result="b"/>
      <feBlend in="SourceGraphic" in2="b" mode="normal"/>
    </filter>
  </defs>
  <!-- Cloud body -->
  <path fill="url(#pc-grad)" d="M96 52c0-15.5-12.5-28-28-28-11.8 0-22 7.3-26.2 17.6C38.8 39.8 34 38 28.5 38 16.5 38 7 47.5 7 59.5 7 71 16 80.5 28 81h64c11 0 20-9 20-20 0-9.8-7.1-17.8-16-19.2V52z"/>
  <ellipse cx="56" cy="48" rx="22" ry="18" fill="url(#pc-shine)"/>
  <!-- Lens (semantic search) -->
  <circle cx="54" cy="58" r="16" stroke="white" stroke-width="4" stroke-opacity="0.92"/>
  <path stroke="white" stroke-width="4" stroke-linecap="round" stroke-opacity="0.92" d="M66 70l14 14"/>
  <!-- Embedding dots -->
  <circle cx="88" cy="36" r="3" fill="#fef3c7" opacity="0.95"/>
  <circle cx="98" cy="48" r="2.2" fill="#fef3c7" opacity="0.75"/>
  <circle cx="82" cy="44" r="2" fill="#fef3c7" opacity="0.55"/>
</svg>
